<svg width="81" height="64" viewBox="0 0 81 64" fill="none" xmlns="http://www.w3.org/2000/svg">
<path d="M10.8055 8.35732C10.7274 8.21407 10.6681 8.03388 10.6681 7.9555C10.6681 7.66539 10.5272 7.42664 10.2453 7.25005C10.0882 7.14914 9.93912 7.06716 9.91578 7.06716C9.89244 7.06716 9.53872 6.93742 9.13473 6.77615C8.72984 6.61578 8.32225 6.46892 8.23068 6.4491C8.14001 6.42928 7.96315 6.27882 7.83746 6.11485C7.71088 5.94907 7.55467 5.79771 7.49093 5.77789C7.15157 5.66167 7.07077 5.14002 7.30868 4.61476C7.3796 4.45619 7.43886 4.2724 7.43975 4.20573C7.43975 4.14176 7.52684 3.97778 7.63277 3.84354C7.91287 3.48676 8.08076 2.71645 7.9021 2.60743C7.86439 2.58401 7.83656 2.27318 7.83656 1.89298C7.83656 1.38394 7.80784 1.16501 7.72075 0.994726C7.54838 0.650561 7.19018 0.398294 6.79336 0.335227C6.59227 0.302793 6.38668 0.222607 6.2996 0.138819C6.18289 0.0298033 6.06887 -0.00172951 5.79146 7.23939e-05C5.08492 7.23939e-05 4.32542 0.411808 3.9313 1.00554C3.6521 1.42808 3.56771 1.88487 3.58028 2.88403C3.58836 3.40208 3.6108 3.5183 3.73738 3.69128C3.81908 3.8003 3.88551 3.92193 3.88551 3.95706C3.88551 3.9931 3.94118 4.07689 4.0103 4.14176C4.07943 4.20573 4.15664 4.39313 4.18267 4.5571C4.2096 4.72107 4.27245 4.91207 4.32183 4.98775C4.3721 5.05533 4.4125 5.22471 4.4125 5.35715C4.4125 5.56977 4.38646 5.61122 4.20781 5.67518C4.09649 5.71392 3.89539 5.86258 3.76252 6.00493C3.48691 6.30675 2.92401 6.51487 1.64919 6.77705C1.23442 6.86624 0.860954 6.97166 0.819657 7.01941C0.721801 7.12482 0.557509 7.65368 0.467732 8.1483C0.430026 8.35913 0.382447 8.55373 0.363594 8.58617C0.310627 8.67356 -1.42467e-06 10.2827 -1.42467e-06 10.4737V10.6376H5.60383H11.2077L11.1726 10.3574C11.0066 9.03484 10.9249 8.58887 10.8055 8.35732Z" transform="translate(32.5343 3.84882)" fill="black"/>
<path d="M16.9022 13.082C16.7846 12.855 16.6894 12.5748 16.6894 12.4496C16.6894 11.9982 16.4667 11.6225 16.0277 11.345C15.7827 11.1873 15.5501 11.0603 15.5133 11.0603C15.4756 11.0603 14.9235 10.8558 14.2906 10.6053C13.6559 10.353 13.0202 10.1242 12.8784 10.0909C12.7356 10.0602 12.4591 9.82418 12.2607 9.56741C12.0641 9.31153 11.819 9.07458 11.7194 9.04215C11.1888 8.86016 11.0613 8.0439 11.4339 7.22132C11.5452 6.97266 11.6377 6.68526 11.6395 6.58345C11.6395 6.47804 11.7759 6.22216 11.942 6.01224C12.381 5.45725 12.6432 4.25358 12.3631 4.0806C12.3056 4.04276 12.2607 3.55354 12.2607 2.96251C12.2607 2.16427 12.2167 1.82371 12.0794 1.55522C11.8083 1.01915 11.2499 0.624536 10.6277 0.52453C10.3135 0.474977 9.99209 0.347942 9.85383 0.218205C9.67249 0.0479247 9.49204 -0.00343017 9.06021 0.000173642C7.95327 0.000173642 6.76553 0.644357 6.14967 1.57504C5.71425 2.23634 5.58139 2.9481 5.60114 4.51035C5.6137 5.32121 5.64962 5.505 5.84623 5.77529C5.97461 5.94737 6.07785 6.13477 6.07785 6.19153C6.07785 6.24829 6.16583 6.37893 6.27356 6.48074C6.38039 6.58255 6.50159 6.87536 6.54379 7.13033C6.58508 7.388 6.68384 7.68802 6.76105 7.80064C6.84005 7.90965 6.90289 8.17363 6.90289 8.38266C6.90289 8.71691 6.86159 8.77817 6.58419 8.87728C6.40823 8.93854 6.09491 9.17009 5.88842 9.39533C5.4548 9.86563 4.57589 10.19 2.57927 10.6044C1.93109 10.7386 1.34575 10.9098 1.282 10.981C1.13028 11.1486 0.871726 11.9757 0.731675 12.7451C0.673321 13.0757 0.599705 13.3847 0.569181 13.4325C0.487484 13.5667 6.5754e-07 16.0885 6.5754e-07 16.3831V16.6417H8.76844H17.536L17.4794 16.2029C17.2182 14.1389 17.0916 13.4433 16.9022 13.082Z" transform="translate(15.5604 38.4507)" fill="black"/>
<path d="M16.9765 2.95741C17.7854 2.90606 18.4039 2.20511 18.3509 1.38344C18.3007 0.568981 17.5986 -0.0499724 16.7826 0.00318386C10.0045 0.446453 3.54775 4.50165 0.191916 10.4173C-0.208486 11.1318 0.0375008 12.0318 0.744937 12.4427C1.23242 12.7138 1.81148 12.6868 2.25767 12.4102C2.45787 12.285 2.63293 12.1084 2.75862 11.885C5.62517 6.81079 11.1635 3.33761 16.9765 2.95741Z" transform="translate(5.12854 26.3624)" fill="black"/>
<path d="M21.7315 2.95811C22.5386 2.90315 23.1635 2.20671 23.1069 1.38684C23.0566 0.570578 22.3582 -0.048377 21.543 0.00297743C12.8248 0.563371 4.51516 5.7799 0.193335 13.3921C-0.20976 14.1029 0.0380225 15.0102 0.745459 15.4138C1.23294 15.6922 1.812 15.6625 2.2546 15.3832C2.45929 15.2588 2.63345 15.0804 2.75824 14.8624C6.59617 8.09084 13.9803 3.45273 21.7315 2.95811Z" transform="translate(0 20.4523)" fill="black"/>
<path d="M16.8995 13.0838C16.7819 12.8585 16.6876 12.5756 16.6876 12.4531C16.6876 11.9999 16.465 11.6242 16.0268 11.3476C15.7809 11.1909 15.5483 11.062 15.5106 11.062C15.4729 11.062 14.9235 10.8584 14.2879 10.6088C13.6541 10.3566 13.0193 10.1277 12.8766 10.0935C12.7339 10.0638 12.4564 9.82771 12.2598 9.56914C12.0623 9.31327 11.8181 9.07812 11.7176 9.04388C11.1852 8.86369 11.0604 8.04562 11.4321 7.22305C11.5425 6.97619 11.6368 6.68698 11.6377 6.58518C11.6377 6.48157 11.7733 6.2257 11.9393 6.01577C12.3774 5.45988 12.6414 4.25621 12.3613 4.08413C12.3038 4.04448 12.2598 3.55707 12.2598 2.96424C12.2598 2.16599 12.215 1.82724 12.0776 1.55695C11.8074 1.01998 11.2472 0.625362 10.6259 0.525356C10.3126 0.477606 9.99029 0.34877 9.85294 0.219934C9.67159 0.0487525 9.49204 -0.00260312 9.05932 9.97476e-05C7.95238 0.00190166 6.76464 0.646985 6.14877 1.57587C5.71425 2.23627 5.58049 2.95072 5.60024 4.51118C5.61191 5.32204 5.64962 5.50673 5.84623 5.77612C5.97371 5.9491 6.07695 6.1365 6.07695 6.19326C6.07695 6.25002 6.16583 6.37976 6.27266 6.48156C6.3795 6.58337 6.50249 6.87618 6.54289 7.13295C6.58419 7.38882 6.68204 7.68884 6.76015 7.80236C6.83825 7.91138 6.90289 8.17626 6.90289 8.38438C6.90289 8.71863 6.8598 8.7799 6.58419 8.879C6.40733 8.94027 6.0949 9.17181 5.88752 9.39705C5.453 9.86735 4.5741 10.1917 2.57837 10.6079C1.92929 10.7422 1.34485 10.9107 1.28111 10.9827C1.12759 11.1503 0.869934 11.9774 0.730781 12.7486C0.673324 13.0793 0.598804 13.3865 0.567382 13.436C0.485686 13.5703 1.0959e-07 16.092 1.0959e-07 16.3867V16.6452H8.76844H17.536L17.4803 16.2056C17.2146 14.1406 17.0898 13.445 16.8995 13.0838Z" transform="translate(56.422 14.7305)" fill="black"/>
<path d="M56.5249 8.71133C50.5207 8.71133 45.3029 12.1223 42.6733 17.1118L38.4476 14.5207C39.12 13.171 39.5078 11.6547 39.5078 10.0465C39.5078 4.50657 35.0172 -8.93586e-08 29.496 -8.93586e-08C23.9756 -8.93586e-08 19.4832 4.50657 19.4832 10.0465C19.4832 15.5865 23.9756 20.0958 29.496 20.0958C32.9694 20.0958 36.0326 18.3092 37.829 15.6063L42.1302 18.2434C41.3159 20.1444 40.8607 22.2365 40.8607 24.433C40.8607 27.0809 41.5224 29.5738 42.6787 31.7649L30.0598 41.9565C27.6591 36.3598 22.1128 32.4307 15.6659 32.4307C7.02858 32.4307 -2.2603e-07 39.4807 -2.2603e-07 48.1506C-2.2603e-07 56.8187 7.02858 63.8713 15.6659 63.8713C24.3033 63.8713 31.3319 56.8187 31.3319 48.1506C31.3319 46.892 31.1676 45.6721 30.8875 44.4972L44.0334 33.8795C46.8955 37.6815 51.422 40.1537 56.5249 40.1537C65.1623 40.1537 72.1899 33.102 72.1899 24.4321C72.1899 15.764 65.1623 8.71133 56.5249 8.71133ZM29.496 18.4957C24.8527 18.4957 21.0741 14.7063 21.0741 10.0456C21.0741 5.38681 24.8527 1.59559 29.496 1.59559C34.1401 1.59559 37.9179 5.38681 37.9179 10.0456C37.9179 14.7063 34.1401 18.4957 29.496 18.4957ZM15.6659 61.3721C8.40126 61.3721 2.49039 55.442 2.49039 48.1506C2.49039 40.8592 8.40036 34.9291 15.6659 34.9291C22.9315 34.9291 28.8424 40.8592 28.8424 48.1506C28.8424 55.442 22.9306 61.3721 15.6659 61.3721ZM56.5249 37.6554C49.2593 37.6554 43.3502 31.7244 43.3502 24.4321C43.3502 17.1425 49.2593 11.2106 56.5249 11.2106C63.7905 11.2106 69.7013 17.1425 69.7013 24.4321C69.7013 31.7244 63.7905 37.6554 56.5249 37.6554Z" transform="translate(8.60895)" fill="black"/>
</svg>
