<svg width="81" height="64" viewBox="0 0 81 64" fill="none" xmlns="http://www.w3.org/2000/svg">
<path d="M21.715 0C19.4912 0 17.719 0.127035 16.3841 0.393717C15.05 0.662202 13.9233 1.12169 12.9896 1.74515C11.7669 2.52718 10.9086 3.61553 10.4086 5.01201C9.90851 6.40669 9.65085 8.80322 9.65085 12.2196V20.3841C9.65085 23.7987 9.05025 26.1907 7.8275 27.5638C6.60475 28.9359 4.495 29.6189 1.51497 29.6189C1.35921 29.6189 1.11915 29.6135 0.785542 29.5909C0.452023 29.5684 0.177937 29.563 1.52741e-07 29.563V33.8137C0.177937 33.8137 0.452023 33.8083 0.785542 33.7858C1.11915 33.7633 1.35921 33.7308 1.51497 33.729C4.495 33.7308 6.60475 34.4237 7.8275 35.785C9.05025 37.1463 9.65085 39.5159 9.65085 42.9079V51.0724C9.65085 54.3987 9.90851 56.7962 10.4086 58.2242C10.9086 59.6522 11.7669 60.7432 12.9896 61.5469C13.9233 62.1703 15.067 62.6298 16.4119 62.8983C17.7576 63.165 19.5128 63.292 21.715 63.292H22.8928V59.1251H21.6028C18.7999 59.1251 16.903 58.5863 15.9352 57.5485C14.9683 56.5106 14.4763 54.342 14.4763 51.0165V42.9079C14.4763 39.2032 14.0131 36.576 13.0453 35.0246C12.0784 33.4732 10.352 32.3722 7.88316 31.7019C10.352 31.0117 12.0784 29.8747 13.0453 28.3233C14.0131 26.7737 14.4763 24.1465 14.4763 20.4399V12.3602C14.4763 9.01225 14.9791 6.79229 15.9352 5.74358C16.8913 4.69487 18.7156 4.16691 21.4061 4.16691C21.5615 4.16691 21.8012 4.20115 22.1351 4.22277C22.4682 4.2462 22.7151 4.2516 22.8928 4.2516V0H21.715ZM57.779 0V4.16691H59.0978C61.8772 4.16691 63.7581 4.71199 64.7366 5.77151C65.7152 6.83194 66.1955 9.03477 66.1955 12.3602V20.4399C66.1955 24.1465 66.6866 26.7737 67.6544 28.3233C68.6221 29.8747 70.3198 31.0117 72.7886 31.7019C70.3198 32.3722 68.6221 33.4732 67.6544 35.0246C66.6866 36.576 66.1955 39.2032 66.1955 42.9079V50.9318C66.1955 54.3023 65.7044 56.5448 64.7366 57.6043C63.7688 58.6656 61.9634 59.181 59.2944 59.181C59.1391 59.181 58.8985 59.1756 58.5645 59.153C58.2305 59.1305 57.9567 59.1251 57.779 59.1251V63.292H59.1543C61.423 63.292 63.2113 63.183 64.5122 62.9262C65.813 62.6695 66.8993 62.2406 67.7666 61.6586C68.9678 60.8568 69.8027 59.754 70.292 58.3368C70.7812 56.9196 71.021 54.4888 71.021 51.0724V42.9638C71.021 39.5726 71.6386 37.1968 72.873 35.8129C74.1066 34.4291 76.2396 33.7308 79.2418 33.729C79.398 33.7308 79.6368 33.7633 79.9707 33.7858C80.3038 33.8083 80.5498 33.8137 80.7285 33.8137V29.563C80.5498 29.563 80.3038 29.5684 79.9707 29.5909C79.6368 29.6135 79.398 29.6189 79.2418 29.6189C76.2396 29.6189 74.1066 28.9179 72.873 27.5359C71.6386 26.152 71.021 23.7762 71.021 20.3841V12.2196C71.021 8.82665 70.7812 6.4175 70.292 5.01201C69.8027 3.60472 68.9678 2.52718 67.7666 1.74515C66.8329 1.14331 65.673 0.700942 64.3165 0.422547C62.96 0.143252 61.1815 0 58.9577 0H57.779ZM30.1117 5.20121C27.7004 5.20121 25.7199 7.18961 25.7199 9.60958C25.7199 11.6223 27.0917 13.3305 28.9402 13.8504V49.4417C27.0917 49.9615 25.7199 51.6697 25.7199 53.6825C25.7199 56.1024 27.7004 58.0908 30.1117 58.0908C32.5231 58.0908 34.5027 56.1024 34.5027 53.6825C34.5027 51.6868 33.1534 49.9894 31.3291 49.4543C31.5374 46.4775 32.5249 45.2387 33.9416 44.5071C35.5109 43.6972 37.9214 43.6296 40.4818 43.6296C43.0422 43.6296 45.7508 43.6999 48.032 42.5223C50.0609 41.4754 51.474 39.3203 51.7316 35.903C53.6089 35.4021 55.0085 33.6795 55.0085 31.646C55.0085 29.6333 53.6367 27.9251 51.7882 27.4052V24.8681C53.6367 24.3483 55.0085 22.6401 55.0085 20.6273C55.0085 18.6137 53.6367 16.9055 51.7882 16.3857V13.8504C53.6367 13.3305 55.0085 11.6223 55.0085 9.60958C55.0085 7.18961 53.028 5.20121 50.6166 5.20121C48.6137 5.20121 46.9151 6.57516 46.3944 8.42572L39.8596 8.44284V7.06528L37.6637 8.33563L35.4687 9.60958L37.6637 10.8817L39.8596 12.1539V10.7934L46.3891 10.7745C46.7993 12.2584 47.9691 13.435 49.4468 13.8504V16.3857C47.5984 16.9055 46.2257 18.6137 46.2257 20.6273C46.2257 22.6401 47.5984 24.3483 49.4468 24.8681V27.4052C47.5984 27.9251 46.2257 29.6333 46.2257 31.646C46.2257 33.6425 47.575 35.3417 49.4011 35.876C49.2161 38.6203 48.2905 39.7456 46.9609 40.4321C45.4401 41.2169 43.0449 41.2781 40.4818 41.2781C37.9178 41.2781 35.1841 41.2205 32.8697 42.4151C32.2897 42.7151 31.7564 43.1017 31.2815 43.5801V13.8504C33.13 13.3305 34.5027 11.6223 34.5027 9.60958C34.5027 7.18961 32.5231 5.20121 30.1117 5.20121ZM30.1117 7.5527C31.2573 7.5527 32.1595 8.45996 32.1595 9.60958C32.1595 10.7592 31.2573 11.6647 30.1117 11.6647C28.9662 11.6647 28.0622 10.7592 28.0622 9.60958C28.0622 8.45996 28.9662 7.5527 30.1117 7.5527ZM50.6166 7.5527C51.7622 7.5527 52.6662 8.45996 52.6662 9.60958C52.6662 10.7592 51.7622 11.6647 50.6166 11.6647C49.4711 11.6647 48.5688 10.7592 48.5688 9.60958C48.5688 8.45996 49.4711 7.5527 50.6166 7.5527ZM50.6166 18.5696C51.7622 18.5696 52.6662 19.4768 52.6662 20.6273C52.6662 21.777 51.7622 22.6842 50.6166 22.6842C49.4711 22.6842 48.5688 21.777 48.5688 20.6273C48.5688 19.4768 49.4711 18.5696 50.6166 18.5696ZM50.6166 29.5891C51.7622 29.5891 52.6662 30.4964 52.6662 31.646C52.6662 32.7956 51.7622 33.7029 50.6166 33.7029C49.4711 33.7029 48.5688 32.7956 48.5688 31.646C48.5688 30.4964 49.4711 29.5891 50.6166 29.5891ZM30.1117 51.6274C31.2573 51.6274 32.1595 52.5328 32.1595 53.6825C32.1595 54.8321 31.2573 55.7393 30.1117 55.7393C28.9662 55.7393 28.0622 54.8321 28.0622 53.6825C28.0622 52.5328 28.9662 51.6274 30.1117 51.6274Z" fill="black"/>
</svg>
