<svg width="64" height="41" viewBox="0 0 64 41" fill="none" xmlns="http://www.w3.org/2000/svg">
<path d="M62.9866 1.48387C62.9426 0.843293 62.4381 0.337859 61.7998 0.293712C60.0545 0.175687 58.3066 0.135143 56.564 0.135143C52.9182 0.136945 49.2931 0.308126 45.7388 0.308126C45.0466 0.308126 44.3572 0.301819 43.6704 0.286503C41.6316 0.241455 39.3108 0.230644 36.9829 0.230644C34.7493 0.230644 32.5112 0.239653 30.52 0.239653C28.2773 0.239653 26.3409 0.227941 25.1118 0.173884C21.9284 0.0360377 18.6156 5.77394e-07 14.9833 5.77394e-07C10.9434 5.77394e-07 6.50662 0.0450476 1.40463 0.0450476C0.699891 0.0450476 0.128914 0.618955 0.128914 1.3226C0.128914 5.16337 0.249214 9.87716 0.249214 14.1882C0.249214 15.928 0.229464 17.6019 0.1747 19.1182C0.0544002 22.4995 0.0247734 26.0529 0.0247734 29.463C0.0247734 32.7974 0.053502 35.9886 0.057093 38.7437C-0.0569228 39.114 0.00143168 39.5159 0.217792 39.8366C0.426971 40.2204 0.822884 40.4889 1.28703 40.5051C4.63837 40.6267 8.67022 40.6574 12.8852 40.6574C17.532 40.6574 22.4015 40.6186 26.8005 40.6186C29.7398 40.6186 32.4717 40.6366 34.7834 40.6934C36.2566 40.7285 37.931 40.742 39.7157 40.742C44.3114 40.742 49.6423 40.6565 54.0584 40.6574C55.6824 40.6574 57.1826 40.6682 58.4709 40.6988C59.7592 40.7303 60.8392 40.7817 61.5969 40.8565C61.947 40.8916 62.2989 40.779 62.562 40.5456C62.8259 40.3141 62.9839 39.9771 62.9965 39.6267C63.1114 36.213 63.2416 32.1082 63.2523 28.6449C63.2685 23.6645 63.3735 18.9939 63.3735 14.2909C63.3762 10.1222 63.2936 5.93008 62.9866 1.48387ZM60.8248 14.29C60.8248 18.9543 60.7198 23.6221 60.7036 28.635C60.6964 30.9424 60.6354 33.5578 60.56 36.0661C55.5289 30.2207 50.1369 25.0654 45.7568 19.3705C46.7039 18.4236 47.6618 17.4695 48.617 16.5181C52.0115 13.1386 55.3503 9.83482 57.9179 7.33647C58.9655 6.31929 59.8821 5.43636 60.621 4.73812C60.7754 7.99056 60.8248 11.1394 60.8248 14.29ZM25.0032 2.72989C26.3193 2.78755 28.2648 2.79926 30.5209 2.80016C32.5202 2.80016 34.7574 2.79026 36.9838 2.79026C39.3028 2.79026 41.6082 2.80017 43.6147 2.84612C44.323 2.86233 45.0314 2.86774 45.7397 2.86774C49.3747 2.86774 52.9999 2.69656 56.5649 2.69656C57.3891 2.69656 58.2096 2.70557 59.0266 2.72809C57.5201 4.14619 55.2677 6.34182 52.6722 8.90053C45.2172 16.2478 34.9746 26.5547 31.9815 29.5675C30.08 27.8503 25.3865 23.5798 20.1319 18.5777C17.1083 15.6991 13.9006 12.5782 10.9353 9.56543C8.51311 7.10403 6.25973 4.7183 4.40047 2.59835C8.28149 2.58844 11.7702 2.55961 14.9851 2.55961C18.5995 2.55871 21.8754 2.59475 25.0032 2.72989ZM2.57621 29.4621C2.57621 26.0664 2.60674 22.5401 2.72614 19.2101C2.7818 17.647 2.80065 15.946 2.80065 14.1873C2.80065 10.9961 2.73691 7.61036 2.7028 4.5363C4.72366 6.82563 7.14403 9.36902 9.7206 11.9737C11.7325 14.0044 13.8359 16.0703 15.9053 18.0677C15.5498 18.4542 15.1386 18.9299 14.6691 19.493C13.6187 20.7508 12.299 22.4157 10.8796 24.2465C8.03909 27.9098 4.79907 32.2352 2.59507 35.1958C2.58699 33.3695 2.57621 31.4397 2.57621 29.4621ZM54.0602 38.0959C49.6136 38.0959 44.2835 38.1815 39.7175 38.1815C37.9444 38.1815 36.2881 38.168 34.8472 38.1338C32.5004 38.0761 29.7533 38.0599 26.8023 38.0599C22.388 38.0599 17.5204 38.0959 12.887 38.0959C9.62005 38.0959 6.4734 38.077 3.68405 38.0122C5.15728 36.0283 7.4331 32.974 9.78165 29.8801C11.4551 27.6755 13.1635 25.4511 14.635 23.5942C15.3693 22.6671 16.0462 21.831 16.6253 21.1355C17.0616 20.6129 17.4458 20.1688 17.7493 19.8363C24.8973 26.6646 31.1753 32.2803 31.1825 32.2866C31.687 32.7398 32.4573 32.7163 32.9349 32.2343C32.9367 32.2334 33.0454 32.1226 33.2527 31.9136C34.4504 30.7072 38.8727 26.2538 43.9379 21.1895C48.5551 27.125 54.0404 32.3461 58.9862 38.1509C58.8381 38.1473 58.689 38.1437 58.5364 38.1392C57.214 38.1068 55.6959 38.0959 54.0602 38.0959Z" transform="translate(0 0.137207)" fill="black"/>
</svg>
