<svg width="58" height="52" viewBox="0 0 58 52" fill="none" xmlns="http://www.w3.org/2000/svg">
<path d="M40.5397 2.70286C43.8399 2.70286 46.8151 4.09844 48.9078 6.33551C50.6422 6.38056 50.8254 6.39677 51.6639 6.39677C52.1684 6.39677 52.91 6.39047 54.3671 6.38056C53.4424 9.64021 53.1955 10.3096 52.0095 14.0522C52.0311 14.5459 52.0428 15.0405 52.0428 15.5406C52.0428 30.7415 40.5119 48.2713 19.4271 48.2713C9.33083 48.2713 3.66415 43.2629 4.58885 43.2629C9.95926 43.2629 14.9041 41.4259 18.8274 38.3392C13.8107 38.2455 -4.45072 26.6043 5.74427 4.80839C11.3993 11.7674 19.8463 16.3469 29.3743 16.8262C29.1768 15.9847 29.0762 15.1081 29.0762 14.2044C29.0762 7.85272 34.2087 2.70286 40.5397 2.70286ZM54.3671 6.38146H54.3715H54.3671ZM40.5397 -8.24848e-07C32.8675 -8.24848e-07 26.602 6.15622 26.3892 13.8035C19.1541 12.662 12.5152 8.86449 7.83246 3.10108C7.31805 2.46771 6.54866 2.10643 5.74606 2.10643C5.63654 2.10643 5.52611 2.11274 5.41659 2.12625C4.49728 2.23977 3.70096 2.81909 3.30774 3.66058C-2.4101 15.8838 0.342435 24.8231 3.65877 30.1694C6.0531 34.0308 9.41163 37.0608 12.6041 38.9311C10.1002 40.006 7.39436 40.5619 4.59064 40.5619C3.05188 40.5619 1.7995 41.807 1.7995 43.3368C1.7995 45.9973 5.96871 47.8803 7.3378 48.4993C9.83806 49.6291 13.9651 50.9751 19.4289 50.9751C32.705 50.9751 41.0236 44.6774 45.6641 39.3942C51.4314 32.829 54.7378 24.1348 54.7378 15.5415C54.7378 15.1721 54.7315 14.7982 54.7199 14.4225C54.9174 13.8026 55.0862 13.2729 55.237 12.7999C55.904 10.7096 56.2146 9.73932 56.9257 7.23646C57.0154 6.96798 57.0639 6.67967 57.0639 6.38056C57.0639 4.88768 55.86 3.67769 54.3733 3.67769C54.3715 3.67769 54.3697 3.67769 54.368 3.67769C54.3617 3.67769 54.3554 3.67769 54.35 3.67769L53.4819 3.6849C52.5841 3.69121 52.0526 3.69481 51.6648 3.69481C51.1243 3.69481 50.8712 3.68761 50.2499 3.66959L50.0354 3.66328C47.4462 1.3235 44.0473 -8.24848e-07 40.5397 -8.24848e-07Z" transform="translate(0 0.415283)" fill="black"/>
</svg>
